<?xml version="1.0" standalone="no"?>
<!DOCTYPE svg PUBLIC "-//W3C//DTD SVG 20010904//EN"
 "http://www.w3.org/TR/2001/REC-SVG-20010904/DTD/svg10.dtd">
<svg version="1.0" xmlns="http://www.w3.org/2000/svg"
 width="168.000000pt" height="125.000000pt" viewBox="0 0 168.000000 125.000000"
 preserveAspectRatio="xMidYMid meet">

<g transform="translate(0.000000,125.000000) scale(0.100000,-0.100000)"
fill="#000000" stroke="none">
<path d="M905 1158 c-37 -13 -65 -37 -65 -55 0 -26 84 -3 100 27 21 40 14 45
-35 28z"/>
<path d="M970 1141 c-15 -29 -12 -49 12 -92 24 -42 33 -47 42 -23 11 27 7 54
-14 94 -23 46 -26 47 -40 21z"/>
<path d="M763 1115 c-28 -12 -61 -51 -51 -61 10 -9 79 19 93 39 28 40 15 47
-42 22z"/>
<path d="M618 1060 c-17 -17 -28 -33 -25 -37 17 -17 97 30 97 57 0 21 -43 9
-72 -20z"/>
<path d="M860 1069 c-54 -22 -81 -69 -40 -69 41 0 100 44 100 74 0 9 -32 6
-60 -5z"/>
<path d="M936 1054 c-11 -29 -6 -72 12 -103 42 -75 72 0 32 79 -22 43 -34 50
-44 24z"/>
<path d="M715 1026 c-35 -15 -65 -66 -39 -66 42 0 104 44 104 74 0 10 -34 6
-65 -8z"/>
<path d="M1034 1004 c-8 -30 30 -119 46 -109 25 15 -2 135 -30 135 -5 0 -13
-12 -16 -26z"/>
<path d="M610 999 c-58 -23 -85 -77 -32 -65 27 7 72 48 72 67 0 11 -8 11 -40
-2z"/>
<path d="M802 965 c-26 -11 -52 -47 -52 -71 0 -7 23 -5 62 7 26 7 43 19 53 39
8 16 15 31 15 35 0 10 -45 4 -78 -10z"/>
<path d="M891 940 c-11 -33 -4 -60 25 -105 39 -59 62 40 24 103 -25 40 -35 40
-49 2z"/>
<path d="M681 936 c-36 -13 -71 -49 -71 -73 0 -10 6 -13 18 -8 9 3 29 9 44 12
31 6 55 29 60 57 4 24 -9 27 -51 12z"/>
<path d="M1012 938 c-19 -19 -14 -79 9 -117 25 -41 41 -31 43 26 1 49 -34 109
-52 91z"/>
<path d="M519 881 c-36 -36 -37 -51 -3 -51 26 0 84 48 84 69 0 22 -52 10 -81
-18z"/>
<path d="M1100 875 c0 -41 26 -99 40 -90 14 8 12 69 -2 100 -17 37 -38 32 -38
-10z"/>
<path d="M783 873 c-32 -6 -34 -27 -7 -67 21 -31 30 -36 62 -36 21 0 46 6 56
13 16 12 17 17 6 38 -29 56 -49 65 -117 52z"/>
<path d="M653 843 c-39 -8 -45 -27 -20 -64 18 -28 30 -35 62 -37 23 -2 48 3
59 11 19 14 19 15 -3 50 -28 45 -41 51 -98 40z"/>
<path d="M966 824 c-11 -29 -6 -69 14 -101 22 -36 35 -41 44 -17 10 27 7 62
-11 99 -18 37 -37 45 -47 19z"/>
<path d="M1077 823 c-16 -27 -16 -71 1 -102 22 -42 33 -44 43 -8 11 41 -27
138 -44 110z"/>
<path d="M522 813 c-35 -7 -37 -29 -8 -68 29 -38 67 -46 101 -21 18 13 18 14
-4 49 -19 32 -42 49 -59 46 -4 -1 -17 -4 -30 -6z"/>
<path d="M862 753 c-32 -6 -37 -26 -15 -63 20 -35 43 -43 92 -32 44 10 47 20
18 63 -23 34 -46 42 -95 32z"/>
<path d="M713 720 c-28 -11 -28 -16 -3 -57 19 -33 31 -37 80 -33 45 3 54 22
27 61 -24 36 -61 47 -104 29z"/>
<path d="M1036 704 c-10 -27 -7 -64 10 -95 20 -39 38 -32 42 16 6 65 -34 126
-52 79z"/>
<path d="M588 693 c-25 -6 -22 -36 7 -67 24 -26 42 -31 83 -20 27 8 28 27 1
65 -20 29 -44 34 -91 22z"/>
<path d="M911 631 c-19 -12 -6 -57 23 -76 17 -11 33 -13 62 -7 46 9 53 28 24
65 -16 21 -30 27 -58 27 -20 0 -43 -4 -51 -9z"/>
<path d="M795 613 c-34 -8 -38 -20 -19 -52 22 -36 43 -45 90 -36 42 7 45 31 9
69 -23 25 -38 29 -80 19z"/>
<path d="M658 583 c-24 -6 -23 -24 3 -57 20 -26 57 -34 93 -20 21 8 20 20 -5
55 -20 29 -44 34 -91 22z"/>
<path d="M130 391 c-11 -22 9 -51 36 -51 8 0 14 -7 14 -16 0 -10 -5 -14 -15
-10 -8 3 -22 9 -30 12 -22 9 -18 -14 4 -26 27 -14 37 -13 55 5 19 20 10 44
-20 56 -33 12 -31 33 1 25 27 -7 35 8 9 18 -27 10 -43 7 -54 -13z"/>
<path d="M240 356 c0 -30 5 -58 10 -61 6 -4 10 17 10 54 0 34 -4 61 -10 61 -5
0 -10 -24 -10 -54z"/>
<path d="M310 349 c0 -37 4 -58 10 -54 6 3 10 20 10 37 0 29 1 30 18 15 17
-15 19 -15 35 0 16 16 17 15 17 -14 0 -18 5 -35 10 -38 6 -4 10 17 10 54 0 67
-9 75 -35 34 l-18 -27 -21 27 c-12 15 -25 27 -29 27 -4 0 -7 -27 -7 -61z"/>
<path d="M464 396 c-9 -22 0 -101 11 -99 6 1 11 11 13 23 2 11 11 20 21 20 17
0 41 18 41 31 0 31 -75 53 -86 25z m56 -21 c0 -8 -7 -15 -15 -15 -8 0 -15 7
-15 15 0 8 7 15 15 15 8 0 15 -7 15 -15z"/>
<path d="M582 353 c3 -57 3 -58 36 -61 36 -4 45 15 10 20 -20 3 -23 10 -26 51
-2 26 -8 47 -13 47 -6 0 -9 -24 -7 -57z"/>
<path d="M684 396 c-3 -7 -4 -33 -2 -57 3 -40 6 -44 32 -47 16 -2 33 1 39 7 8
8 3 11 -16 11 -17 0 -27 5 -27 15 0 9 9 15 25 15 14 0 25 5 25 10 0 6 -11 10
-25 10 -16 0 -25 6 -25 15 0 9 9 15 25 15 14 0 25 5 25 10 0 16 -70 12 -76 -4z"/>
<path d="M910 350 c0 -33 4 -60 10 -60 6 0 10 16 10 37 0 36 0 36 21 17 20
-18 22 -18 34 -1 18 25 25 21 25 -18 0 -19 5 -35 10 -35 6 0 10 27 10 60 0 47
-3 60 -15 60 -8 0 -15 -3 -15 -7 0 -5 -7 -17 -15 -27 -14 -19 -15 -18 -36 7
-11 15 -25 27 -30 27 -5 0 -9 -27 -9 -60z"/>
<path d="M1095 398 c-28 -77 -33 -98 -24 -103 5 -4 12 1 15 9 8 21 44 20 60
-1 19 -26 18 1 -2 60 -15 45 -39 62 -49 35z m29 -43 c3 -9 0 -15 -9 -15 -9 0
-12 6 -9 15 4 8 7 15 9 15 2 0 5 -7 9 -15z"/>
<path d="M1200 350 c0 -33 4 -60 10 -60 6 0 10 8 10 18 0 32 13 34 36 5 26
-33 44 -25 20 9 -20 29 -20 47 1 70 24 27 -5 24 -34 -4 l-23 -21 0 21 c0 12
-4 22 -10 22 -6 0 -10 -27 -10 -60z"/>
<path d="M1322 353 c3 -56 4 -58 32 -61 16 -2 33 1 39 7 8 8 3 11 -16 11 -17
0 -27 5 -27 15 0 8 9 15 19 15 11 0 23 5 26 10 4 6 -5 10 -19 10 -16 0 -26 6
-26 15 0 9 9 15 25 15 14 0 25 5 25 10 0 6 -18 10 -40 10 l-41 0 3 -57z"/>
<path d="M1430 356 c0 -30 5 -58 10 -61 6 -3 10 3 10 14 0 31 17 34 36 6 9
-13 20 -22 26 -19 5 3 4 12 -3 20 -9 11 -9 21 -1 39 14 31 -7 55 -49 55 -29 0
-29 -1 -29 -54z m60 19 c0 -8 -6 -15 -14 -15 -17 0 -28 14 -19 24 12 12 33 6
33 -9z"/>
<path d="M805 340 c-4 -6 9 -10 32 -10 28 0 34 3 23 10 -20 13 -47 13 -55 0z"/>
<path d="M363 224 c-4 -11 3 -24 18 -36 l24 -20 -28 7 c-19 4 -26 2 -22 -5 3
-5 17 -10 31 -10 29 0 32 25 4 40 -27 14 -26 33 1 25 15 -5 19 -4 15 4 -11 16
-36 13 -43 -5z"/>
<path d="M440 200 c0 -37 2 -40 28 -39 16 1 20 3 10 6 -13 3 -18 15 -18 39 0
19 -4 34 -10 34 -5 0 -10 -18 -10 -40z"/>
<path d="M526 225 c-19 -20 -20 -26 -3 -49 27 -38 95 2 71 42 -15 23 -48 27
-68 7z m53 -9 c17 -20 2 -48 -23 -44 -24 3 -34 37 -14 49 18 12 24 11 37 -5z"/>
<path d="M640 225 c-7 -8 -10 -25 -6 -40 10 -41 76 -31 76 11 0 2 -10 4 -22 3
-13 0 -17 -3 -10 -6 19 -7 14 -23 -7 -23 -10 0 -22 7 -25 16 -9 23 13 46 37
38 13 -4 17 -2 13 5 -10 16 -41 14 -56 -4z"/>
<path d="M749 213 c-5 -16 -12 -34 -14 -40 -5 -16 7 -17 23 -1 8 8 15 8 27 -2
18 -15 19 -4 4 39 -13 38 -26 40 -40 4z m31 -13 c0 -5 -4 -10 -10 -10 -5 0
-10 5 -10 10 0 6 5 10 10 10 6 0 10 -4 10 -10z"/>
<path d="M830 200 c0 -22 5 -40 10 -40 6 0 10 10 10 23 l1 22 18 -22 c27 -32
31 -29 30 20 -1 23 -4 32 -6 20 -5 -28 -19 -29 -33 -3 -17 32 -30 23 -30 -20z"/>
<path d="M973 200 c-1 -25 1 -37 4 -27 2 9 13 17 23 17 10 0 21 -8 23 -17 3
-10 5 2 4 27 0 25 -2 35 -4 23 -3 -14 -12 -23 -23 -23 -11 0 -20 9 -23 23 -2
12 -4 2 -4 -23z"/>
<path d="M1060 200 c0 -39 1 -40 33 -39 23 1 26 3 10 6 -27 5 -30 20 -5 26 16
4 16 5 0 6 -26 2 -22 29 5 34 16 3 13 5 -10 6 -32 1 -33 0 -33 -39z"/>
<path d="M1151 198 c1 -24 3 -35 6 -25 6 22 12 22 28 0 11 -15 13 -12 12 22
-2 33 -6 41 -24 43 -21 3 -23 0 -22 -40z m37 14 c2 -7 -3 -12 -12 -12 -9 0
-16 7 -16 16 0 17 22 14 28 -4z"/>
<path d="M1240 200 c0 -37 2 -40 28 -39 23 2 24 2 5 6 -13 2 -23 8 -23 13 0 5
10 11 23 13 l22 4 -22 2 c-13 0 -23 7 -23 15 0 8 10 17 23 19 19 4 18 4 -5 6
-26 1 -28 -2 -28 -39z"/>
</g>
</svg>
